<?xml version="1.0" encoding="UTF-8" standalone="no"?>
<!DOCTYPE svg PUBLIC "-//W3C//DTD SVG 1.1//EN" "http://www.w3.org/Graphics/SVG/1.1/DTD/svg11.dtd">
<svg width="100%" height="100%" viewBox="0 0 2137 650" version="1.1" xmlns="http://www.w3.org/2000/svg" xmlns:xlink="http://www.w3.org/1999/xlink" xml:space="preserve" xmlns:serif="http://www.serif.com/" style="fill-rule:evenodd;clip-rule:evenodd;stroke-linejoin:round;stroke-miterlimit:2;">
    <g transform="matrix(1,0,0,1,-2778.87,-3491.26)">
        <g transform="matrix(1,0,0,1,4434.16,-0.244648)">
            <g transform="matrix(4.16667,0,0,4.16667,-1889.43,2103.02)">
                <text x="249.626px" y="435.389px" style="font-family:'Raleway-SemiBold', 'Raleway';font-weight:600;font-size:64px;fill:rgb(69,80,91);">Iv<tspan x="301px " y="435.389px ">a</tspan>n <tspan x="388.844px " y="435.389px ">W</tspan>hi</text>
                <text x="509.777px" y="435.389px" style="font-family:'Raleway-SemiBold', 'Raleway';font-weight:600;font-size:64px;fill:rgb(69,80,91);">t<tspan x="532.433px " y="435.389px ">e</tspan></text>
            </g>
        </g>
        <g transform="matrix(1,0,0,1,4434.16,-0.244648)">
            <g transform="matrix(633.765,0,0,-633.765,-1636.53,3819.81)">
                <path d="M0.899,0.507C0.845,0.507 0.8,0.463 0.8,0.409L0.8,-0.207C0.8,-0.221 0.798,-0.234 0.792,-0.247C0.787,-0.259 0.78,-0.27 0.771,-0.279C0.762,-0.288 0.751,-0.295 0.739,-0.3C0.727,-0.305 0.714,-0.308 0.7,-0.308C0.686,-0.308 0.673,-0.305 0.661,-0.3C0.649,-0.295 0.638,-0.288 0.629,-0.279C0.62,-0.27 0.613,-0.259 0.608,-0.247C0.603,-0.234 0.6,-0.221 0.6,-0.207L0.6,0.408C0.6,0.463 0.556,0.507 0.501,0.507L0.499,0.507C0.444,0.507 0.4,0.463 0.4,0.408L0.4,-0.207C0.4,-0.221 0.397,-0.234 0.392,-0.247C0.387,-0.259 0.38,-0.27 0.371,-0.279C0.362,-0.288 0.351,-0.295 0.339,-0.3C0.327,-0.305 0.314,-0.308 0.3,-0.308C0.286,-0.308 0.273,-0.305 0.261,-0.3C0.249,-0.295 0.238,-0.288 0.229,-0.279C0.22,-0.27 0.213,-0.259 0.208,-0.247C0.203,-0.234 0.2,-0.221 0.2,-0.207L0.2,0.204C0.172,0.189 0.139,0.18 0.104,0.18C0.066,0.18 0.031,0.191 0,0.209L0,-0.207C0,-0.249 0.008,-0.288 0.023,-0.324C0.039,-0.361 0.06,-0.393 0.088,-0.42C0.115,-0.447 0.147,-0.468 0.183,-0.484C0.22,-0.5 0.259,-0.507 0.3,-0.507C0.337,-0.507 0.373,-0.501 0.408,-0.488C0.442,-0.475 0.473,-0.456 0.5,-0.431C0.528,-0.456 0.559,-0.475 0.593,-0.488C0.627,-0.501 0.663,-0.507 0.7,-0.507C0.741,-0.507 0.78,-0.5 0.817,-0.484C0.853,-0.468 0.885,-0.447 0.912,-0.42C0.94,-0.393 0.961,-0.361 0.977,-0.324C0.992,-0.288 1,-0.249 1,-0.207L1,0.409C1,0.463 0.956,0.507 0.901,0.507L0.899,0.507Z" style="fill:url(#_Linear1);fill-rule:nonzero;"/>
            </g>
        </g>
        <g transform="matrix(1,0,0,1,4434.16,-0.244648)">
            <g transform="matrix(0,4.16667,4.16667,0,-1570.51,3491.5)">
                <path d="M20.347,-20.347C9.11,-20.347 0,-11.237 0,0C0,11.237 9.11,20.347 20.347,20.347C31.584,20.347 40.694,11.237 40.694,0C40.694,-11.237 31.584,-20.347 20.347,-20.347" style="fill:rgb(69,80,91);fill-rule:nonzero;"/>
            </g>
        </g>
    </g>
    <defs>
        <linearGradient id="_Linear1" x1="0" y1="0" x2="1" y2="0" gradientUnits="userSpaceOnUse" gradientTransform="matrix(1,0,0,-1,0,-1.26756e-06)"><stop offset="0" style="stop-color:rgb(39,170,225);stop-opacity:1"/><stop offset="1" style="stop-color:rgb(43,57,144);stop-opacity:1"/></linearGradient>
    </defs>
</svg>
